<svg width="1024" height="1024" viewBox="0 0 1024 1024" fill="none" xmlns="http://www.w3.org/2000/svg">
  <defs>
    <linearGradient id="icon-card-gradient" x1="168" y1="132" x2="848" y2="892" gradientUnits="userSpaceOnUse">
      <stop offset="0" stop-color="#ffffff"/>
      <stop offset="0.58" stop-color="#fbf6f1"/>
      <stop offset="1" stop-color="#efe5dd"/>
    </linearGradient>
    <radialGradient id="icon-card-vignette" cx="0" cy="0" r="1" gradientUnits="userSpaceOnUse" gradientTransform="translate(512 864) rotate(-90) scale(760 760)">
      <stop offset="0" stop-color="#ffede5" stop-opacity="0.92"/>
      <stop offset="0.5" stop-color="#fff5ef" stop-opacity="0.2"/>
      <stop offset="1" stop-color="#ffffff" stop-opacity="0"/>
    </radialGradient>
    <radialGradient id="card-top-sheen" cx="0" cy="0" r="1" gradientUnits="userSpaceOnUse" gradientTransform="translate(524 276) rotate(180) scale(330 152)">
      <stop offset="0" stop-color="#ffffff" stop-opacity="0.96"/>
      <stop offset="0.7" stop-color="#ffffff" stop-opacity="0.32"/>
      <stop offset="1" stop-color="#ffffff" stop-opacity="0"/>
    </radialGradient>
    <radialGradient id="card-bottom-glow" cx="0" cy="0" r="1" gradientUnits="userSpaceOnUse" gradientTransform="translate(512 862) rotate(-90) scale(198 366)">
      <stop offset="0" stop-color="#ffd7cb" stop-opacity="0.52"/>
      <stop offset="1" stop-color="#ffd7cb" stop-opacity="0"/>
    </radialGradient>
    <linearGradient id="lobster-gradient" x1="0%" y1="0%" x2="100%" y2="100%">
      <stop offset="0%" stop-color="#ff6761"/>
      <stop offset="50%" stop-color="#f1454b"/>
      <stop offset="100%" stop-color="#a31b25"/>
    </linearGradient>
    <radialGradient id="lobster-highlight" cx="0" cy="0" r="1" gradientUnits="userSpaceOnUse" gradientTransform="translate(52 24) rotate(90) scale(34 42)">
      <stop offset="0" stop-color="#ffffff" stop-opacity="0.36"/>
      <stop offset="0.62" stop-color="#ffffff" stop-opacity="0.14"/>
      <stop offset="1" stop-color="#ffffff" stop-opacity="0"/>
    </radialGradient>
    <radialGradient id="lobster-glow" cx="0" cy="0" r="1" gradientUnits="userSpaceOnUse" gradientTransform="translate(512 504) rotate(90) scale(246 246)">
      <stop offset="0" stop-color="#ff5b5b" stop-opacity="0.44"/>
      <stop offset="0.56" stop-color="#ff5b5b" stop-opacity="0.16"/>
      <stop offset="1" stop-color="#ff5b5b" stop-opacity="0"/>
    </radialGradient>
    <filter id="card-shadow" x="62" y="68" width="900" height="908" filterUnits="userSpaceOnUse" color-interpolation-filters="sRGB">
      <feFlood flood-opacity="0" result="BackgroundImageFix"/>
      <feColorMatrix in="SourceAlpha" type="matrix" values="0 0 0 0 0 0 0 0 0 0 0 0 0 0 0 0 0 0 127 0" result="hardAlpha"/>
      <feOffset dy="18"/>
      <feGaussianBlur stdDeviation="17"/>
      <feColorMatrix type="matrix" values="0 0 0 0 0.098 0 0 0 0 0.074 0 0 0 0 0.071 0 0 0 0.18 0"/>
      <feBlend mode="normal" in2="BackgroundImageFix" result="effect1_dropShadow"/>
      <feBlend mode="normal" in="SourceGraphic" in2="effect1_dropShadow" result="shape"/>
    </filter>
    <filter id="glow-blur" x="154" y="146" width="716" height="716" filterUnits="userSpaceOnUse" color-interpolation-filters="sRGB">
      <feFlood flood-opacity="0" result="BackgroundImageFix"/>
      <feBlend mode="normal" in="SourceGraphic" in2="BackgroundImageFix" result="shape"/>
      <feGaussianBlur stdDeviation="56" result="effect1_foregroundBlur"/>
    </filter>
    <filter id="ground-shadow" x="290" y="622" width="444" height="156" filterUnits="userSpaceOnUse" color-interpolation-filters="sRGB">
      <feFlood flood-opacity="0" result="BackgroundImageFix"/>
      <feBlend mode="normal" in="SourceGraphic" in2="BackgroundImageFix" result="shape"/>
      <feGaussianBlur stdDeviation="24" result="effect1_foregroundBlur"/>
    </filter>
  </defs>

  <g filter="url(#card-shadow)">
    <rect x="96" y="86" width="832" height="832" rx="208" fill="url(#icon-card-gradient)"/>
    <rect x="96" y="86" width="832" height="832" rx="208" fill="url(#icon-card-vignette)"/>
    <rect x="96" y="86" width="832" height="832" rx="208" fill="url(#card-bottom-glow)"/>
    <ellipse cx="524" cy="278" rx="286" ry="118" fill="url(#card-top-sheen)"/>
    <rect x="96.75" y="86.75" width="830.5" height="830.5" rx="207.25" stroke="#E8DDD6" stroke-opacity="0.92" stroke-width="1.5"/>
  </g>

  <g filter="url(#ground-shadow)">
    <ellipse cx="512" cy="724" rx="174" ry="34" fill="#9B1F28" fill-opacity="0.18"/>
  </g>
  <g filter="url(#glow-blur)">
    <circle cx="512" cy="512" r="148" fill="url(#lobster-glow)"/>
  </g>

  <g transform="translate(188 174) scale(5.38)">
    <path d="M60 10 C30 10 15 35 15 55 C15 75 30 95 45 100 L45 110 L55 110 L55 100 C55 100 60 102 65 100 L65 110 L75 110 L75 100 C90 95 105 75 105 55 C105 35 90 10 60 10Z" fill="url(#lobster-gradient)"/>
    <path d="M20 45 C5 40 0 50 5 60 C10 70 20 65 25 55 C28 48 25 45 20 45Z" fill="url(#lobster-gradient)"/>
    <path d="M100 45 C115 40 120 50 115 60 C110 70 100 65 95 55 C92 48 95 45 100 45Z" fill="url(#lobster-gradient)"/>
    <path d="M60 10 C30 10 15 35 15 55 C15 75 30 95 45 100 L45 110 L55 110 L55 100 C55 100 60 102 65 100 L65 110 L75 110 L75 100 C90 95 105 75 105 55 C105 35 90 10 60 10Z" fill="url(#lobster-highlight)"/>
    <ellipse cx="58" cy="54" rx="32" ry="48" fill="#6D111A" fill-opacity="0.08"/>
    <path d="M45 15 Q35 5 30 8" stroke="#ff6e67" stroke-width="3" stroke-linecap="round"/>
    <path d="M75 15 Q85 5 90 8" stroke="#ff6e67" stroke-width="3" stroke-linecap="round"/>
    <circle cx="45" cy="35" r="6" fill="#050810"/>
    <circle cx="75" cy="35" r="6" fill="#050810"/>
    <circle cx="46" cy="34" r="2.5" fill="#00e5cc"/>
    <circle cx="76" cy="34" r="2.5" fill="#00e5cc"/>
  </g>
</svg>
